<svg xmlns="http://www.w3.org/2000/svg" xmlns:xlink="http://www.w3.org/1999/xlink" version="1.1" x="0px" y="0px" viewBox="0 0 100 125" enable-background="new 0 0 100 100" xml:space="preserve"><g><g><g><path d="M70.674,40.877c-13.492-13.493-35.365-13.493-48.856-0.001c-13.493,13.491-13.493,35.366,0,48.857     c13.492,13.491,35.364,13.491,48.856-0.001C84.165,76.242,84.166,54.368,70.674,40.877z M46.245,48.746c-0.001,0-0.002,0-0.003,0     c-4.421,0-8.579,1.722-11.707,4.85c-3.128,3.128-4.851,7.286-4.851,11.711H18.826c0-7.324,2.853-14.211,8.031-19.39     c5.178-5.178,12.063-8.03,19.384-8.03c0.002,0,0.003,0,0.005,0L46.245,48.746z"/></g><g><path d="M80.639,9.434l3.172-3.17c0.488-0.49,0.488-1.283,0-1.772c-0.489-0.489-1.283-0.489-1.771,0l-3.171,3.171     c-0.488,0.489-0.488,1.282,0,1.771C79.357,9.922,80.15,9.922,80.639,9.434z"/><path d="M72.083,6.621c0.227,0.227,0.539,0.366,0.885,0.366c0.691,0,1.252-0.56,1.252-1.251l-0.002-4.483     c0-0.691-0.56-1.252-1.252-1.252c-0.691,0-1.252,0.561-1.251,1.252l0.001,4.483C71.716,6.081,71.855,6.394,72.083,6.621z"/><path d="M65.297,9.434c0.488,0.489,1.28,0.489,1.771,0c0.487-0.489,0.487-1.282,0-1.771l-3.172-3.171     c-0.488-0.489-1.281-0.489-1.771,0c-0.488,0.489-0.488,1.282,0,1.772L65.297,9.434z"/><path d="M64.622,15.333c0-0.692-0.561-1.252-1.253-1.252h-4.483c-0.691,0-1.252,0.56-1.252,1.252     c0,0.345,0.141,0.658,0.367,0.885c0.226,0.227,0.539,0.368,0.885,0.368h4.484C64.062,16.585,64.622,16.025,64.622,15.333z"/><path d="M67.065,23.005c0.488-0.49,0.488-1.282-0.001-1.771h-0.001c-0.488-0.49-1.281-0.489-1.77,0.001l-3.17,3.171     c-0.488,0.488-0.487,1.282,0.001,1.77c0,0,0,0,0.001,0.001c0.489,0.49,1.281,0.489,1.771-0.001L67.065,23.005z"/><path d="M87.05,14.083h-4.484c-0.691,0-1.253,0.56-1.253,1.251c0,0.346,0.142,0.659,0.368,0.886     c0.226,0.227,0.539,0.367,0.885,0.367h4.484c0.69,0,1.252-0.56,1.252-1.252C88.302,14.643,87.74,14.083,87.05,14.083z"/><path d="M76.739,36.239c4.325-6.998,3.457-16.317-2.606-22.38c-0.814-0.815-2.135-0.815-2.95,0c-0.815,0.816-0.815,2.137,0,2.951     c4.422,4.422,5.232,11.082,2.479,16.351l-0.954-0.953c-2.663-2.665-6.94-2.72-9.682-0.185c3.375,1.599,6.542,3.791,9.335,6.583     c2.792,2.792,4.982,5.959,6.583,9.335c2.535-2.741,2.479-7.019-0.185-9.682L76.739,36.239z"/></g></g></g><text x="0" y="115" fill="#000000" font-size="5px" font-weight="bold" font-family="'Helvetica Neue', Helvetica, Arial-Unicode, Arial, Sans-serif">Created by Diego Naive</text><text x="0" y="120" fill="#000000" font-size="5px" font-weight="bold" font-family="'Helvetica Neue', Helvetica, Arial-Unicode, Arial, Sans-serif">from the Noun Project</text></svg>