<svg xmlns:dc="http://purl.org/dc/elements/1.1/" xmlns:cc="http://creativecommons.org/ns#" xmlns:rdf="http://www.w3.org/1999/02/22-rdf-syntax-ns#" xmlns:svg="http://www.w3.org/2000/svg" xmlns="http://www.w3.org/2000/svg" version="1.1" viewBox="0 0 100.00001 125" xml:space="preserve" x="0px" y="0px"><path d="M 50,5 C 25.147221,5 5,25.147221 5,50 5,74.85278 25.147221,95 50,95 74.852779,95 95,74.85278 95,50 95,25.147221 74.852779,5 50,5 z m 0,5.75 C 71.671639,10.75 89.25,28.328361 89.25,50 89.25,71.67164 71.671639,89.25 50,89.25 28.328361,89.25 10.75,71.67164 10.75,50 10.75,28.328361 28.328361,10.75 50,10.75 z M 33.3125,23.1875 C 24.986961,28.25349 18.54232,36.02392 19.375,49.75 l 20.375,0 c 0.08208,-1.74546 0.63928,-3.4925 1.5625,-5 0.70956,-1.33974 1.70648,-2.367599 2.9375,-3.1875 0.02736,-0.01962 0.06621,-0.04324 0.09375,-0.0625 0.1143,-0.0801 0.22639,-0.14351 0.34375,-0.21875 C 40.9327,35.216511 37.22984,29.092022 33.3125,23.1875 z m 33.25,0 c -3.75012,6.007032 -7.522989,11.976951 -11.21875,18.03125 0.25596,0.19008 0.48169,0.38477 0.71875,0.59375 0.82476,0.61128 1.5773,1.34978 2.1875,2.1875 1.33254,1.64412 1.93084,3.69026 1.9375,5.75 l 20.40625,0 c 0.0855,-0.009 0.0607,-0.14146 0.0625,-0.25 C 81.25529,35.72424 74.979839,28.185093 66.5625,23.1875 z M 50,42.71875 c -4.026156,0 -7.28125,3.255094 -7.28125,7.28125 0,4.026156 3.255094,7.28125 7.28125,7.28125 4.026156,0 7.28125,-3.255094 7.28125,-7.28125 0,-4.026156 -3.255094,-7.28125 -7.28125,-7.28125 z m -4.84375,16.1875 C 41.93371,65.03903 38.59038,71.051881 35.4375,77.25 c 4.313701,2.570401 9.822391,4.89506 16.96875,4.4375 C 57.634709,81.3527 61.9446,79.223881 65.4375,77.25 61.99752,71.096881 58.373161,65.1551 54.9375,59 c -2.98674,1.750321 -6.76607,1.508791 -9.78125,-0.09375 z" transform="translate(0,-5e-6)" style="" fill="#000000" fill-opacity="1" fill-rule="nonzero" stroke="none"/><text x="0" y="115" fill="#000000" font-size="5px" font-weight="bold" font-family="'Helvetica Neue', Helvetica, Arial-Unicode, Arial, Sans-serif">Created by Aha-Soft</text><text x="0" y="120" fill="#000000" font-size="5px" font-weight="bold" font-family="'Helvetica Neue', Helvetica, Arial-Unicode, Arial, Sans-serif">from the Noun Project</text></svg>